# Blender v2.93.18 OBJ File: ''
# www.blender.org
mtllib untitled.mtl
o Cube_Cube.001
v -0.727851 -0.500000 0.500000
v -0.727851 0.500000 0.500000
v -0.727851 -0.500000 -0.500000
v -0.727851 0.500000 -0.500000
v 0.727851 -0.500000 0.500000
v 0.727851 0.500000 0.500000
v 0.727851 -0.500000 -0.500000
v 0.727851 0.500000 -0.500000
v -0.887350 -0.609568 -0.000000
v -0.887350 -0.000000 0.609568
v -0.887350 0.609568 0.000000
v -0.887350 -0.000000 -0.609568
v 0.000000 -0.609568 -0.609568
v -0.000000 0.609568 -0.609568
v 0.887350 -0.000000 -0.609568
v 0.887350 -0.609568 0.000000
v 0.887350 0.609568 0.000000
v 0.887350 -0.000000 0.609568
v -0.000000 -0.609568 0.609568
v -0.000000 0.609568 0.609568
v -1.222072 0.000000 0.000000
v 0.000000 0.000000 -0.839506
v 1.222072 0.000000 0.000000
v -0.000000 0.000000 0.839506
v 0.000000 -0.839506 0.000000
v -0.000000 0.839506 0.000000
vt 0.375000 0.000000
vt 0.500000 0.000000
vt 0.500000 0.125000
vt 0.375000 0.125000
vt 0.625000 0.000000
vt 0.625000 0.125000
vt 0.625000 0.250000
vt 0.500000 0.250000
vt 0.375000 0.250000
vt 0.500000 0.375000
vt 0.375000 0.375000
vt 0.625000 0.375000
vt 0.625000 0.500000
vt 0.500000 0.500000
vt 0.375000 0.500000
vt 0.500000 0.625000
vt 0.375000 0.625000
vt 0.625000 0.625000
vt 0.625000 0.750000
vt 0.500000 0.750000
vt 0.375000 0.750000
vt 0.500000 0.875000
vt 0.375000 0.875000
vt 0.625000 0.875000
vt 0.625000 1.000000
vt 0.500000 1.000000
vt 0.375000 1.000000
vt 0.125000 0.500000
vt 0.250000 0.500000
vt 0.250000 0.625000
vt 0.125000 0.625000
vt 0.250000 0.750000
vt 0.125000 0.750000
vt 0.750000 0.500000
vt 0.750000 0.625000
vt 0.875000 0.500000
vt 0.875000 0.625000
vt 0.875000 0.750000
vt 0.750000 0.750000
vn -0.8196 -0.4051 0.4051
vn -0.8196 0.4051 0.4051
vn -0.8196 0.4051 -0.4051
vn -0.8196 -0.4051 -0.4051
vn -0.2156 -0.3139 -0.9246
vn -0.2156 0.3139 -0.9246
vn 0.2156 0.3139 -0.9246
vn 0.2156 -0.3139 -0.9246
vn 0.8196 -0.4051 -0.4051
vn 0.8196 0.4051 -0.4051
vn 0.8196 0.4051 0.4051
vn 0.8196 -0.4051 0.4051
vn 0.2156 -0.3139 0.9246
vn 0.2156 0.3139 0.9246
vn -0.2156 0.3139 0.9246
vn -0.2156 -0.3139 0.9246
vn -0.2156 -0.9246 -0.3139
vn 0.2156 -0.9246 -0.3139
vn 0.2156 -0.9246 0.3139
vn -0.2156 -0.9246 0.3139
vn 0.2156 0.9246 -0.3139
vn -0.2156 0.9246 -0.3139
vn -0.2156 0.9246 0.3139
vn 0.2156 0.9246 0.3139
usemtl None
s off
f 1/1/1 10/2/1 21/3/1 9/4/1
f 10/2/2 2/5/2 11/6/2 21/3/2
f 21/3/3 11/6/3 4/7/3 12/8/3
f 9/4/4 21/3/4 12/8/4 3/9/4
f 3/9/5 12/8/5 22/10/5 13/11/5
f 12/8/6 4/7/6 14/12/6 22/10/6
f 22/10/7 14/12/7 8/13/7 15/14/7
f 13/11/8 22/10/8 15/14/8 7/15/8
f 7/15/9 15/14/9 23/16/9 16/17/9
f 15/14/10 8/13/10 17/18/10 23/16/10
f 23/16/11 17/18/11 6/19/11 18/20/11
f 16/17/12 23/16/12 18/20/12 5/21/12
f 5/21/13 18/20/13 24/22/13 19/23/13
f 18/20/14 6/19/14 20/24/14 24/22/14
f 24/22/15 20/24/15 2/25/15 10/26/15
f 19/23/16 24/22/16 10/26/16 1/27/16
f 3/28/17 13/29/17 25/30/17 9/31/17
f 13/29/18 7/15/18 16/17/18 25/30/18
f 25/30/19 16/17/19 5/21/19 19/32/19
f 9/31/20 25/30/20 19/32/20 1/33/20
f 8/13/21 14/34/21 26/35/21 17/18/21
f 14/34/22 4/36/22 11/37/22 26/35/22
f 26/35/23 11/37/23 2/38/23 20/39/23
f 17/18/24 26/35/24 20/39/24 6/19/24
o Cube.001_Cube.002
v -0.469970 -0.367305 -2.106932
v -0.469970 0.778516 -2.526090
v -0.469970 -0.778516 -3.231027
v -0.469970 0.367305 -3.650185
v 0.469970 -0.367305 -2.106932
v 0.469970 0.778516 -2.526090
v 0.469970 -0.778516 -3.231027
v 0.469970 0.367305 -3.650185
v -0.572957 -0.698456 -2.623053
v -0.572957 0.250661 -2.193347
v -0.572957 0.698456 -3.134064
v -0.572957 -0.250661 -3.563771
v 0.000000 -0.949116 -3.308265
v -0.000000 0.447795 -3.819276
v 0.572957 -0.250661 -3.563771
v 0.572957 -0.698456 -2.623053
v 0.572957 0.698456 -3.134064
v 0.572957 0.250661 -2.193347
v -0.000000 -0.447795 -1.937841
v -0.000000 0.949116 -2.448852
v -0.789085 0.000000 -2.878559
v 0.000000 -0.345214 -3.822243
v 0.789085 0.000000 -2.878559
v -0.000000 0.345214 -1.934874
v 0.000000 -0.961924 -2.526673
v -0.000000 0.961924 -3.230444
vt 0.375000 0.000000
vt 0.500000 0.000000
vt 0.500000 0.125000
vt 0.375000 0.125000
vt 0.625000 0.000000
vt 0.625000 0.125000
vt 0.625000 0.250000
vt 0.500000 0.250000
vt 0.375000 0.250000
vt 0.500000 0.375000
vt 0.375000 0.375000
vt 0.625000 0.375000
vt 0.625000 0.500000
vt 0.500000 0.500000
vt 0.375000 0.500000
vt 0.500000 0.625000
vt 0.375000 0.625000
vt 0.625000 0.625000
vt 0.625000 0.750000
vt 0.500000 0.750000
vt 0.375000 0.750000
vt 0.500000 0.875000
vt 0.375000 0.875000
vt 0.625000 0.875000
vt 0.625000 1.000000
vt 0.500000 1.000000
vt 0.375000 1.000000
vt 0.125000 0.500000
vt 0.250000 0.500000
vt 0.250000 0.625000
vt 0.125000 0.625000
vt 0.250000 0.750000
vt 0.125000 0.750000
vt 0.750000 0.500000
vt 0.750000 0.625000
vt 0.875000 0.500000
vt 0.875000 0.625000
vt 0.875000 0.750000
vt 0.750000 0.750000
vn -0.9368 -0.1443 0.3187
vn -0.9368 0.3159 0.1504
vn -0.9368 0.1443 -0.3187
vn -0.9368 -0.3159 -0.1504
vn -0.3795 -0.5761 -0.7239
vn -0.3795 -0.0270 -0.9248
vn 0.3795 -0.0270 -0.9248
vn 0.3795 -0.5761 -0.7239
vn 0.9368 -0.3159 -0.1504
vn 0.9368 0.1443 -0.3187
vn 0.9368 0.3159 0.1504
vn 0.9368 -0.1443 0.3187
vn 0.3795 0.0270 0.9248
vn 0.3795 0.5761 0.7239
vn -0.3795 0.5761 0.7239
vn -0.3795 0.0270 0.9248
vn -0.3845 -0.9230 0.0162
vn 0.3845 -0.9230 0.0162
vn 0.3845 -0.7156 0.5832
vn -0.3845 -0.7156 0.5832
vn 0.3845 0.7156 -0.5832
vn -0.3845 0.7156 -0.5832
vn -0.3845 0.9230 -0.0162
vn 0.3845 0.9230 -0.0162
usemtl None
s off
f 27/40/25 36/41/25 47/42/25 35/43/25
f 36/41/26 28/44/26 37/45/26 47/42/26
f 47/42/27 37/45/27 30/46/27 38/47/27
f 35/43/28 47/42/28 38/47/28 29/48/28
f 29/48/29 38/47/29 48/49/29 39/50/29
f 38/47/30 30/46/30 40/51/30 48/49/30
f 48/49/31 40/51/31 34/52/31 41/53/31
f 39/50/32 48/49/32 41/53/32 33/54/32
f 33/54/33 41/53/33 49/55/33 42/56/33
f 41/53/34 34/52/34 43/57/34 49/55/34
f 49/55/35 43/57/35 32/58/35 44/59/35
f 42/56/36 49/55/36 44/59/36 31/60/36
f 31/60/37 44/59/37 50/61/37 45/62/37
f 44/59/38 32/58/38 46/63/38 50/61/38
f 50/61/39 46/63/39 28/64/39 36/65/39
f 45/62/40 50/61/40 36/65/40 27/66/40
f 29/67/41 39/68/41 51/69/41 35/70/41
f 39/68/42 33/54/42 42/56/42 51/69/42
f 51/69/43 42/56/43 31/60/43 45/71/43
f 35/70/44 51/69/44 45/71/44 27/72/44
f 34/52/45 40/73/45 52/74/45 43/57/45
f 40/73/46 30/75/46 37/76/46 52/74/46
f 52/74/47 37/76/47 28/77/47 46/78/47
f 43/57/48 52/74/48 46/78/48 32/58/48
o Cube.002_Cube.003
v -0.781178 -0.206499 -5.627653
v -0.781178 0.630398 -5.933803
v -0.781178 -0.630398 -6.786434
v -0.781178 0.206499 -7.092584
v 0.781178 -0.206499 -5.627653
v 0.781178 0.630398 -5.933803
v 0.781178 -0.630398 -6.786434
v 0.781178 0.206499 -7.092583
v -0.952362 -0.510146 -6.173500
v -0.952362 0.258395 -5.653763
v -0.952362 0.510146 -6.546737
v -0.952362 -0.258395 -7.066474
v 0.000000 -0.768541 -6.879855
v -0.000000 0.251751 -7.253093
v 0.952362 -0.258395 -7.066474
v 0.952362 -0.510146 -6.173500
v 0.952362 0.510146 -6.546737
v 0.952362 0.258395 -5.653763
v -0.000000 -0.251751 -5.467144
v -0.000000 0.768541 -5.840382
v -1.311607 0.000000 -6.360118
v 0.000000 -0.355866 -7.332922
v 1.311607 0.000000 -6.360118
v -0.000000 0.355866 -5.387315
v 0.000000 -0.702581 -6.103104
v -0.000000 0.702581 -6.617133
vt 0.375000 0.000000
vt 0.500000 0.000000
vt 0.500000 0.125000
vt 0.375000 0.125000
vt 0.625000 0.000000
vt 0.625000 0.125000
vt 0.625000 0.250000
vt 0.500000 0.250000
vt 0.375000 0.250000
vt 0.500000 0.375000
vt 0.375000 0.375000
vt 0.625000 0.375000
vt 0.625000 0.500000
vt 0.500000 0.500000
vt 0.375000 0.500000
vt 0.500000 0.625000
vt 0.375000 0.625000
vt 0.625000 0.625000
vt 0.625000 0.750000
vt 0.500000 0.750000
vt 0.375000 0.750000
vt 0.500000 0.875000
vt 0.375000 0.875000
vt 0.625000 0.875000
vt 0.625000 1.000000
vt 0.500000 1.000000
vt 0.375000 1.000000
vt 0.125000 0.500000
vt 0.250000 0.500000
vt 0.250000 0.625000
vt 0.125000 0.625000
vt 0.250000 0.750000
vt 0.125000 0.750000
vt 0.750000 0.500000
vt 0.750000 0.625000
vt 0.875000 0.500000
vt 0.875000 0.625000
vt 0.875000 0.750000
vt 0.750000 0.750000
vn -0.8061 -0.3315 0.4903
vn -0.8061 0.5696 0.1606
vn -0.8061 0.3315 -0.4903
vn -0.8061 -0.5696 -0.1606
vn -0.2358 -0.6904 -0.6839
vn -0.2358 0.0861 -0.9680
vn 0.2358 0.0861 -0.9680
vn 0.2358 -0.6904 -0.6839
vn 0.8061 -0.5696 -0.1606
vn 0.8061 0.3315 -0.4903
vn 0.8061 0.5696 0.1606
vn 0.8061 -0.3315 0.4903
vn 0.2358 -0.0861 0.9680
vn 0.2358 0.6904 0.6839
vn -0.2358 0.6904 0.6839
vn -0.2358 -0.0861 0.9680
vn -0.1848 -0.9768 0.1081
vn 0.1848 -0.9768 0.1081
vn 0.1848 -0.8160 0.5477
vn -0.1848 -0.8160 0.5477
vn 0.1848 0.8160 -0.5477
vn -0.1848 0.8160 -0.5477
vn -0.1848 0.9768 -0.1081
vn 0.1848 0.9768 -0.1081
usemtl None
s off
f 53/79/49 62/80/49 73/81/49 61/82/49
f 62/80/50 54/83/50 63/84/50 73/81/50
f 73/81/51 63/84/51 56/85/51 64/86/51
f 61/82/52 73/81/52 64/86/52 55/87/52
f 55/87/53 64/86/53 74/88/53 65/89/53
f 64/86/54 56/85/54 66/90/54 74/88/54
f 74/88/55 66/90/55 60/91/55 67/92/55
f 65/89/56 74/88/56 67/92/56 59/93/56
f 59/93/57 67/92/57 75/94/57 68/95/57
f 67/92/58 60/91/58 69/96/58 75/94/58
f 75/94/59 69/96/59 58/97/59 70/98/59
f 68/95/60 75/94/60 70/98/60 57/99/60
f 57/99/61 70/98/61 76/100/61 71/101/61
f 70/98/62 58/97/62 72/102/62 76/100/62
f 76/100/63 72/102/63 54/103/63 62/104/63
f 71/101/64 76/100/64 62/104/64 53/105/64
f 55/106/65 65/107/65 77/108/65 61/109/65
f 65/107/66 59/93/66 68/95/66 77/108/66
f 77/108/67 68/95/67 57/99/67 71/110/67
f 61/109/68 77/108/68 71/110/68 53/111/68
f 60/91/69 66/112/69 78/113/69 69/96/69
f 66/112/70 56/114/70 63/115/70 78/113/70
f 78/113/71 63/115/71 54/116/71 72/117/71
f 69/96/72 78/113/72 72/117/72 58/97/72
o Cube.003_Cube.004
v -0.677372 0.007927 -9.581451
v -0.408735 0.488423 -9.710715
v -0.145017 -0.398729 -9.986718
v 0.123620 0.081766 -10.115982
v -0.123620 -0.081766 -8.764046
v 0.145017 0.398729 -8.893310
v 0.408735 -0.488423 -9.169312
v 0.677372 -0.007927 -9.298576
v -0.501302 -0.238220 -9.859484
v -0.662056 0.302559 -9.691241
v -0.173797 0.347569 -10.017074
v -0.013043 -0.193210 -10.185316
v 0.160754 -0.540779 -9.608256
v 0.488259 0.045010 -9.765846
v 0.662056 -0.302559 -9.188787
v 0.173797 -0.347569 -8.862954
v 0.501302 0.238220 -9.020544
v 0.013043 0.193210 -8.694712
v -0.488259 -0.045010 -9.114182
v -0.160754 0.540779 -9.271771
v -0.464879 0.075298 -10.126231
v 0.446915 -0.341391 -9.780238
v 0.464879 -0.075298 -8.753797
v -0.446915 0.341391 -9.099790
v -0.225522 -0.403379 -9.331496
v 0.225522 0.403379 -9.548532
vt 0.375000 0.000000
vt 0.500000 0.000000
vt 0.500000 0.125000
vt 0.375000 0.125000
vt 0.625000 0.000000
vt 0.625000 0.125000
vt 0.625000 0.250000
vt 0.500000 0.250000
vt 0.375000 0.250000
vt 0.500000 0.375000
vt 0.375000 0.375000
vt 0.625000 0.375000
vt 0.625000 0.500000
vt 0.500000 0.500000
vt 0.375000 0.500000
vt 0.500000 0.625000
vt 0.375000 0.625000
vt 0.625000 0.625000
vt 0.625000 0.750000
vt 0.500000 0.750000
vt 0.375000 0.750000
vt 0.500000 0.875000
vt 0.375000 0.875000
vt 0.625000 0.875000
vt 0.625000 1.000000
vt 0.500000 1.000000
vt 0.375000 1.000000
vt 0.125000 0.500000
vt 0.250000 0.500000
vt 0.250000 0.625000
vt 0.125000 0.625000
vt 0.250000 0.750000
vt 0.125000 0.750000
vt 0.750000 0.500000
vt 0.750000 0.625000
vt 0.875000 0.500000
vt 0.875000 0.625000
vt 0.875000 0.750000
vt 0.750000 0.750000
vn -0.9138 -0.1548 -0.3756
vn -0.4579 0.6606 -0.5949
vn 0.0133 0.3006 -0.9536
vn -0.4426 -0.5147 -0.7343
vn 0.2699 -0.7868 -0.5551
vn 0.6627 -0.0841 -0.7442
vn 0.9261 -0.1268 -0.3553
vn 0.5333 -0.8294 -0.1663
vn 0.4579 -0.6606 0.5949
vn 0.9138 0.1548 0.3756
vn 0.4426 0.5147 0.7343
vn -0.0133 -0.3006 0.9536
vn -0.6627 0.0841 0.7442
vn -0.2699 0.7868 0.5551
vn -0.5333 0.8294 0.1663
vn -0.9261 0.1268 0.3553
vn -0.3976 -0.9159 -0.0553
vn -0.1911 -0.9493 0.2495
vn -0.5093 -0.7062 0.4917
vn -0.7158 -0.6728 0.1869
vn 0.7158 0.6728 -0.1869
vn 0.5093 0.7062 -0.4917
vn 0.1911 0.9493 -0.2495
vn 0.3976 0.9159 0.0553
usemtl None
s off
f 79/118/73 88/119/73 99/120/73 87/121/73
f 88/119/74 80/122/74 89/123/74 99/120/74
f 99/120/75 89/123/75 82/124/75 90/125/75
f 87/121/76 99/120/76 90/125/76 81/126/76
f 81/126/77 90/125/77 100/127/77 91/128/77
f 90/125/78 82/124/78 92/129/78 100/127/78
f 100/127/79 92/129/79 86/130/79 93/131/79
f 91/128/80 100/127/80 93/131/80 85/132/80
f 85/132/81 93/131/81 101/133/81 94/134/81
f 93/131/82 86/130/82 95/135/82 101/133/82
f 101/133/83 95/135/83 84/136/83 96/137/83
f 94/134/84 101/133/84 96/137/84 83/138/84
f 83/138/85 96/137/85 102/139/85 97/140/85
f 96/137/86 84/136/86 98/141/86 102/139/86
f 102/139/87 98/141/87 80/142/87 88/143/87
f 97/140/88 102/139/88 88/143/88 79/144/88
f 81/145/89 91/146/89 103/147/89 87/148/89
f 91/146/90 85/132/90 94/134/90 103/147/90
f 103/147/91 94/134/91 83/138/91 97/149/91
f 87/148/92 103/147/92 97/149/92 79/150/92
f 86/130/93 92/151/93 104/152/93 95/135/93
f 92/151/94 82/153/94 89/154/94 104/152/94
f 104/152/95 89/154/95 80/155/95 98/156/95
f 95/135/96 104/152/96 98/156/96 84/136/96
